name rise30.6535peak61.5555fall82.9339.mot
datacolumns 19
datarows 29
range 8.40329500000000 8.44997700000000
endheader
time	ground_force1_vx	ground_force1_vy	ground_force1_vz	ground_force1_px	ground_force1_py	ground_force1_pz	ground_force2_vx	ground_force2_vy	ground_force2_vz	ground_force2_px	ground_force2_py	ground_force2_pz	ground_torque1_x	ground_torque1_y	ground_torque1_z	ground_torque2_x	ground_torque2_y	ground_torque2_z	
8.40329500000000	-37.24056900000000	806.60240999999996	54.84864300000000	0.12419400000000	0.00000000000000	0.10978400000000	-4.30608200000000	15.44059400000000	2.22263300000000	0.00000000000000	0.00000000000000	0.00000000000000	0.00000000000000	22.52157700000000	0.00000000000000	0.00000000000000	0.48944700000000	0.00000000000000	
8.40497800000000	-37.69744400000000	804.70058800000004	54.73685200000000	0.12337800000000	0.00000000000000	0.10959600000000	-5.43636400000000	20.55970100000000	2.85211900000000	0.00000000000000	0.00000000000000	0.00000000000000	0.00000000000000	22.45970100000000	0.00000000000000	0.00000000000000	0.63713000000000	0.00000000000000	
8.40663400000000	-38.16435000000000	802.69666700000005	54.60151500000000	0.12257300000000	0.00000000000000	0.10940300000000	-6.58166500000000	26.12639000000000	3.50593100000000	0.31984200000000	0.00000000000000	-0.07424900000000	0.00000000000000	22.39623900000000	0.00000000000000	0.00000000000000	1.42602400000000	0.00000000000000	
8.40829800000000	-38.64166300000000	800.59045000000003	54.44228900000000	0.12178100000000	0.00000000000000	0.10920400000000	-7.69887600000000	32.02454900000000	4.16323500000000	0.32632000000000	0.00000000000000	-0.07413700000000	0.00000000000000	22.33128100000000	0.00000000000000	0.00000000000000	1.74157800000000	0.00000000000000	
8.40997200000000	-39.12972500000000	798.38171000000000	54.25888100000000	0.12100000000000	0.00000000000000	0.10900000000000	-8.74584100000000	38.13192400000000	4.80322200000000	0.33220400000000	0.00000000000000	-0.07405900000000	0.00000000000000	22.26491400000000	0.00000000000000	0.00000000000000	2.06196800000000	0.00000000000000	
8.41162900000000	-39.62884000000000	796.07017900000005	54.05104100000000	0.12023100000000	0.00000000000000	0.10878900000000	-9.68441200000000	44.33017000000000	5.40664400000000	0.33756900000000	0.00000000000000	-0.07400900000000	0.00000000000000	22.19721600000000	0.00000000000000	0.00000000000000	2.37821700000000	0.00000000000000	
8.41329400000000	-40.13927300000000	793.65554299999997	53.81856900000000	0.11947400000000	0.00000000000000	0.10857300000000	-10.48294100000000	50.51372600000000	5.95710700000000	0.34247700000000	0.00000000000000	-0.07398400000000	0.00000000000000	22.12826400000000	0.00000000000000	0.00000000000000	2.68218000000000	0.00000000000000	
8.41496400000000	-40.66124100000000	791.13743799999997	53.56131300000000	0.11872900000000	0.00000000000000	0.10835200000000	-11.11797100000000	56.59659900000000	6.44196800000000	0.34698100000000	0.00000000000000	-0.07398000000000	0.00000000000000	22.05812400000000	0.00000000000000	0.00000000000000	2.96704500000000	0.00000000000000	
8.41662800000000	-41.19491600000000	788.51544300000000	53.27916900000000	0.11799400000000	0.00000000000000	0.10812500000000	-11.57502400000000	62.51657400000000	6.85281700000000	0.35112400000000	0.00000000000000	-0.07399600000000	0.00000000000000	21.98685700000000	0.00000000000000	0.00000000000000	3.22767300000000	0.00000000000000	
8.41829700000000	-41.74042000000000	785.78907700000002	52.97208400000000	0.11727100000000	0.00000000000000	0.10789200000000	-11.84854800000000	68.23682300000000	7.18552700000000	0.35494300000000	0.00000000000000	-0.07403000000000	0.00000000000000	21.91451800000000	0.00000000000000	0.00000000000000	3.46073800000000	0.00000000000000	
8.41996900000000	-42.29782100000000	782.95779500000003	52.64005500000000	0.11655800000000	0.00000000000000	0.10765300000000	-11.94114200000000	73.74515700000001	7.43995300000000	0.35846900000000	0.00000000000000	-0.07407800000000	0.00000000000000	21.84115300000000	0.00000000000000	0.00000000000000	3.66469300000000	0.00000000000000	
8.42162900000000	-42.86712800000000	780.02098599999999	52.28312900000000	0.11585600000000	0.00000000000000	0.10741000000000	-11.86224800000000	79.05137800000000	7.61934800000000	0.36172900000000	0.00000000000000	-0.07414000000000	0.00000000000000	21.76680100000000	0.00000000000000	0.00000000000000	3.83960100000000	0.00000000000000	
8.42330000000000	-43.44829400000000	776.97796700000004	51.90140300000000	0.11516400000000	0.00000000000000	0.10716100000000	-11.62650300000000	84.18328099999999	7.72960200000000	0.36474700000000	0.00000000000000	-0.07421500000000	0.00000000000000	21.69149100000000	0.00000000000000	0.00000000000000	3.98685200000000	0.00000000000000	
8.42496300000000	-44.04120800000000	773.82798600000001	51.49502600000000	0.11448100000000	0.00000000000000	0.10690600000000	-11.25195600000000	89.18186200000000	7.77839800000000	0.36754300000000	0.00000000000000	-0.07430000000000	0.00000000000000	21.61524700000000	0.00000000000000	0.00000000000000	4.10882400000000	0.00000000000000	
8.42663100000000	-44.64569500000000	770.57021699999996	51.06419400000000	0.11380700000000	0.00000000000000	0.10664700000000	-10.75831000000000	94.09627800000000	7.77436200000000	0.37013300000000	0.00000000000000	-0.07439600000000	0.00000000000000	21.53808200000000	0.00000000000000	0.00000000000000	4.20851600000000	0.00000000000000	
8.42830100000000	-45.26151000000000	767.20376099999999	50.60915700000000	0.11314200000000	0.00000000000000	0.10638200000000	-10.16533700000000	98.97900900000000	7.72628600000000	0.37253500000000	0.00000000000000	-0.07450000000000	0.00000000000000	21.46000200000000	0.00000000000000	0.00000000000000	4.28919600000000	0.00000000000000	
8.42996800000000	-45.88834000000000	763.72764800000004	50.13021100000000	0.11248500000000	0.00000000000000	0.10611300000000	-9.49155500000000	103.88156100000000	7.64246600000000	0.37476000000000	0.00000000000000	-0.07461300000000	0.00000000000000	21.38100200000000	0.00000000000000	0.00000000000000	4.35409100000000	0.00000000000000	
8.43163100000000	-46.52579900000000	760.14083300000004	49.62770300000000	0.11183500000000	0.00000000000000	0.10583800000000	-8.75323100000000	108.85097700000000	7.53019600000000	0.37682300000000	0.00000000000000	-0.07473300000000	0.00000000000000	21.30107000000000	0.00000000000000	0.00000000000000	4.40612600000000	0.00000000000000	
8.43329800000000	-47.17342600000000	756.44220299999995	49.10202500000000	0.11119300000000	0.00000000000000	0.10555900000000	-7.96372400000000	113.92726300000000	7.39541900000000	0.37873300000000	0.00000000000000	-0.07486000000000	0.00000000000000	21.22018400000000	0.00000000000000	0.00000000000000	4.44774500000000	0.00000000000000	
8.43497300000000	-47.83068500000000	752.63057700000002	48.55362000000000	0.11055700000000	0.00000000000000	0.10527600000000	-7.13317000000000	119.14177400000000	7.24254400000000	0.38050000000000	0.00000000000000	-0.07499300000000	0.00000000000000	21.13831500000000	0.00000000000000	0.00000000000000	4.48078900000000	0.00000000000000	
8.43663200000000	-48.49695900000000	748.70470699999998	47.98297600000000	0.10992700000000	0.00000000000000	0.10498800000000	-6.26845400000000	124.51650700000000	7.07440900000000	0.38213300000000	0.00000000000000	-0.07513200000000	0.00000000000000	21.05542100000000	0.00000000000000	0.00000000000000	4.50645400000000	0.00000000000000	
8.43830700000000	-49.17155400000000	744.66328699999997	47.39062400000000	0.10930200000000	0.00000000000000	0.10469600000000	-5.37344100000000	130.06419099999999	6.89236800000000	0.38363900000000	0.00000000000000	-0.07527600000000	0.00000000000000	20.97145300000000	0.00000000000000	0.00000000000000	4.52529900000000	0.00000000000000	
8.43997600000000	-49.85369400000000	740.50495000000001	46.77714200000000	0.10868200000000	0.00000000000000	0.10440000000000	-4.44938000000000	135.78902600000001	6.69647000000000	0.38502600000000	0.00000000000000	-0.07542400000000	0.00000000000000	20.88635500000000	0.00000000000000	0.00000000000000	4.53730900000000	0.00000000000000	
8.44163300000000	-50.54252200000000	736.22828000000004	46.14314800000000	0.10806700000000	0.00000000000000	0.10410100000000	-3.49543400000000	141.68788300000000	6.48570300000000	0.38630000000000	0.00000000000000	-0.07557700000000	0.00000000000000	20.80005900000000	0.00000000000000	0.00000000000000	4.54198700000000	0.00000000000000	
8.44329900000000	-51.23709900000000	731.83181500000001	45.48930300000000	0.10745400000000	0.00000000000000	0.10379800000000	-2.50927000000000	147.75180100000000	6.25827300000000	0.38746700000000	0.00000000000000	-0.07573300000000	0.00000000000000	20.71248800000000	0.00000000000000	0.00000000000000	4.53846900000000	0.00000000000000	
8.44497500000000	-51.93640200000000	727.31405199999995	44.81630500000000	0.10684500000000	0.00000000000000	0.10349100000000	-1.48764600000000	153.96761799999999	6.01189200000000	0.38853300000000	0.00000000000000	-0.07589200000000	0.00000000000000	20.62356000000000	0.00000000000000	0.00000000000000	4.52564600000000	0.00000000000000	
8.44663000000000	-52.63932700000000	722.67345799999998	44.12489200000000	0.10623700000000	0.00000000000000	0.10318100000000	-0.42696500000000	160.31957499999999	5.74404300000000	0.38950100000000	0.00000000000000	-0.07605400000000	0.00000000000000	20.53318000000000	0.00000000000000	0.00000000000000	4.50228700000000	0.00000000000000	
8.44829900000000	-53.34469000000000	717.90847799999995	43.41583500000000	0.10563200000000	0.00000000000000	0.10286900000000	0.67625000000000	166.79079200000001	5.45222400000000	0.39037700000000	0.00000000000000	-0.07621900000000	0.00000000000000	20.44124700000000	0.00000000000000	0.00000000000000	4.46714300000000	0.00000000000000	
8.44997700000000	-54.05122300000000	713.01754200000005	42.68994200000000	0.10502700000000	0.00000000000000	0.10255300000000	1.82497500000000	173.36453399999999	5.13413900000000	0.39116400000000	0.00000000000000	-0.07638600000000	0.00000000000000	20.34765100000000	0.00000000000000	0.00000000000000	4.41904500000000	0.00000000000000	
